<?xml version="1.0" standalone="no"?>
<!DOCTYPE svg PUBLIC "-//W3C//DTD SVG 20010904//EN"
 "http://www.w3.org/TR/2001/REC-SVG-20010904/DTD/svg10.dtd">
<svg version="1.0" xmlns="http://www.w3.org/2000/svg"
 width="2000.000000pt" height="2000.000000pt" viewBox="0 0 2000.000000 2000.000000"
 preserveAspectRatio="xMidYMid meet">
<metadata>
Created by potrace 1.14, written by Peter Selinger 2001-2017
</metadata>
<g transform="translate(0.000000,2000.000000) scale(0.100000,-0.100000)"
fill="#000000" stroke="none">
<path d="M9629 19976 c-2 -2 -67 -7 -144 -11 -146 -7 -165 -8 -305 -19 -110
-9 -152 -13 -220 -20 -30 -4 -80 -9 -110 -12 -30 -4 -63 -8 -73 -10 -10 -2
-46 -6 -80 -9 -34 -4 -64 -8 -67 -10 -3 -2 -32 -6 -65 -9 -33 -4 -67 -9 -75
-11 -8 -2 -35 -7 -60 -10 -73 -10 -323 -56 -380 -69 -14 -3 -52 -11 -85 -17
-153 -28 -725 -172 -825 -208 -14 -5 -65 -22 -115 -36 -98 -29 -318 -101 -350
-115 -11 -4 -94 -36 -185 -70 -303 -114 -517 -206 -810 -348 -107 -52 -208
-101 -225 -108 -16 -8 -57 -29 -90 -47 -33 -18 -100 -55 -150 -82 -49 -27
-123 -68 -163 -92 -41 -24 -76 -43 -79 -43 -2 0 -28 -15 -56 -33 -29 -19 -106
-67 -172 -107 -66 -41 -178 -112 -248 -159 -70 -47 -136 -90 -145 -96 -9 -5
-19 -12 -22 -15 -3 -3 -27 -20 -55 -39 -72 -50 -438 -322 -450 -335 -5 -6 -39
-33 -75 -61 -36 -27 -76 -59 -90 -71 -14 -12 -74 -63 -135 -115 -60 -51 -115
-98 -121 -104 -6 -5 -51 -46 -100 -90 -129 -117 -268 -251 -424 -410 -217
-221 -347 -365 -539 -596 -164 -198 -171 -206 -296 -370 -184 -242 -435 -611
-568 -834 -7 -11 -27 -43 -44 -72 -18 -30 -33 -55 -33 -58 0 -3 -17 -33 -39
-68 -169 -276 -431 -811 -604 -1232 -119 -290 -337 -930 -371 -1087 -3 -13
-23 -90 -45 -173 -33 -123 -61 -239 -106 -445 -18 -83 -38 -181 -41 -205 -2
-16 -6 -41 -9 -55 -12 -54 -62 -365 -71 -435 -3 -22 -9 -71 -14 -110 -10 -67
-16 -123 -25 -210 -2 -22 -6 -65 -9 -95 -32 -310 -41 -526 -41 -945 0 -444 12
-688 50 -1050 9 -93 17 -164 20 -185 2 -14 6 -45 10 -70 3 -25 8 -63 11 -85 3
-22 7 -51 9 -65 2 -14 11 -70 20 -125 9 -55 18 -113 21 -130 2 -16 7 -43 11
-60 3 -16 7 -39 9 -50 13 -111 124 -596 186 -815 16 -58 31 -112 33 -120 35
-140 190 -603 275 -825 87 -225 92 -236 150 -370 50 -116 61 -140 130 -290 51
-111 225 -457 273 -542 24 -43 61 -109 82 -148 102 -186 365 -601 535 -845 60
-85 305 -413 323 -432 7 -7 37 -44 67 -83 45 -57 276 -330 315 -371 5 -6 50
-56 100 -110 165 -182 532 -543 715 -704 46 -41 89 -79 95 -85 7 -5 33 -28 59
-50 27 -22 60 -50 75 -63 24 -21 147 -120 261 -211 25 -20 72 -56 105 -81 33
-25 62 -48 65 -51 3 -3 28 -20 55 -39 28 -19 52 -36 55 -40 3 -3 34 -26 70
-51 36 -24 67 -47 70 -50 4 -6 417 -277 465 -306 11 -6 57 -35 103 -63 322
-200 789 -440 1188 -613 548 -237 1125 -429 1674 -558 47 -11 92 -21 100 -23
8 -2 51 -12 95 -21 44 -9 87 -18 95 -20 39 -8 289 -55 318 -60 17 -3 46 -7 62
-10 149 -25 224 -36 260 -40 19 -2 49 -6 65 -9 17 -2 55 -7 85 -11 30 -3 71
-8 90 -10 79 -10 119 -14 195 -20 44 -4 91 -8 105 -10 136 -20 1307 -29 1525
-12 55 4 119 10 141 11 23 2 73 7 110 11 38 3 87 8 109 11 84 8 141 14 165 19
14 2 50 6 80 9 30 4 64 8 75 10 11 2 43 7 70 10 77 10 276 44 425 72 74 14
146 28 160 30 123 23 598 141 745 186 39 12 77 23 85 24 64 12 504 163 733
251 606 233 1060 459 1720 858 26 15 245 160 367 242 255 172 658 487 960 752
282 247 736 711 970 991 25 29 50 58 55 64 6 6 52 63 103 126 51 63 101 124
110 135 23 28 239 320 285 386 214 302 456 689 598 954 23 44 55 103 71 130
47 85 227 452 294 602 74 166 173 407 239 583 132 351 271 801 351 1136 14 60
27 116 29 124 24 98 98 466 111 550 3 25 8 52 9 60 12 68 16 103 20 155 2 33
8 92 14 130 5 39 13 96 16 128 4 32 8 66 10 75 1 9 6 53 10 97 4 44 9 94 11
110 3 28 9 98 19 235 26 352 27 1241 1 1400 -3 14 -7 68 -10 120 -4 52 -8 106
-10 120 -3 14 -7 61 -11 105 -4 44 -9 87 -10 96 -2 8 -6 40 -9 70 -12 106 -27
220 -42 309 -4 25 -8 52 -9 60 -5 37 -16 107 -20 130 -3 14 -7 34 -9 45 -26
137 -37 193 -40 210 -2 11 -14 67 -26 125 -12 58 -49 211 -81 340 -33 129 -61
242 -64 251 -2 9 -20 72 -40 140 -142 480 -316 940 -530 1404 -44 96 -234 476
-244 490 -5 6 -26 44 -48 85 -22 41 -51 93 -63 115 -13 22 -34 60 -48 85 -14
24 -50 85 -80 135 -30 49 -60 99 -66 110 -130 230 -491 737 -760 1069 -279
343 -699 789 -1005 1066 -52 47 -99 90 -105 95 -13 12 -138 119 -176 151 -74
63 -127 108 -145 123 -54 43 -214 170 -250 196 -22 16 -46 35 -53 42 -7 7 -16
13 -20 13 -4 0 -21 13 -38 28 -18 15 -40 33 -50 40 -72 49 -291 203 -299 209
-5 5 -35 24 -65 43 -30 19 -59 38 -65 43 -20 16 -293 187 -387 242 -26 15
-231 132 -301 171 -135 76 -622 314 -782 383 -93 40 -185 79 -202 87 -82 37
-417 162 -601 225 -274 93 -765 234 -914 263 -13 2 -66 14 -118 26 -52 12
-140 30 -195 41 -55 11 -107 22 -115 24 -8 1 -58 10 -110 19 -52 9 -106 18
-120 21 -13 3 -42 7 -65 10 -57 9 -96 15 -125 20 -14 2 -45 7 -70 10 -25 3
-56 8 -70 10 -14 2 -50 7 -80 10 -30 3 -66 7 -80 10 -14 2 -79 9 -145 15 -66
6 -138 13 -160 15 -22 3 -87 8 -145 11 -58 3 -123 8 -145 10 -49 6 -921 14
-926 10z m641 -1541 c124 -3 241 -7 260 -9 19 -2 80 -7 135 -10 55 -4 118 -9
140 -11 22 -2 63 -7 90 -10 737 -79 1444 -250 2140 -515 61 -23 126 -48 145
-57 58 -25 72 -31 140 -58 36 -15 98 -42 138 -61 41 -19 76 -34 78 -34 7 0
430 -212 499 -250 54 -29 278 -158 315 -180 294 -180 518 -331 740 -499 119
-90 357 -279 390 -311 9 -8 42 -37 74 -64 62 -53 65 -56 217 -196 158 -147
417 -409 508 -515 18 -22 52 -60 75 -85 169 -182 560 -691 691 -899 6 -8 28
-43 50 -77 233 -356 441 -739 644 -1187 17 -38 31 -70 31 -72 0 -3 11 -28 24
-57 13 -29 40 -96 60 -148 21 -52 41 -104 46 -115 4 -11 18 -47 30 -80 12 -33
26 -69 31 -80 30 -72 146 -440 204 -650 31 -113 115 -463 128 -535 28 -149 67
-374 72 -410 3 -25 8 -56 10 -70 11 -66 25 -172 31 -240 3 -41 8 -77 9 -80 2
-3 6 -45 10 -95 4 -49 9 -106 11 -125 3 -36 13 -192 18 -293 3 -57 3 -57 -16
-37 -39 42 -118 152 -158 219 -22 39 -306 600 -630 1248 -398 797 -605 1200
-640 1247 -128 174 -271 293 -460 383 -184 88 -316 114 -535 109 -88 -2 -169
-6 -180 -9 -11 -3 -41 -10 -68 -16 -162 -37 -391 -154 -502 -257 -85 -79 -97
-86 -134 -79 -34 6 -240 63 -381 105 -36 10 -78 22 -95 26 -16 3 -50 13 -75
21 -25 8 -54 17 -64 19 -10 2 -75 19 -142 39 -68 19 -147 42 -176 49 -29 8
-118 33 -198 56 -80 23 -152 43 -160 45 -8 2 -40 11 -70 20 -309 86 -676 71
-990 -40 -124 -44 -153 -57 -270 -124 -298 -169 -528 -412 -680 -720 -67 -134
-126 -312 -146 -437 -3 -20 -8 -46 -10 -58 -2 -11 -7 -57 -11 -101 -40 -494
131 -973 473 -1320 113 -115 171 -158 484 -366 173 -115 322 -213 330 -219
135 -91 182 -142 218 -242 29 -79 26 -203 -8 -273 -32 -69 -41 -80 -214 -255
-84 -85 -181 -191 -215 -235 -34 -44 -68 -87 -74 -95 -32 -41 -112 -182 -156
-273 -71 -149 -135 -339 -155 -467 -7 -41 -14 -80 -22 -117 -3 -16 -8 -131
-10 -258 -12 -627 -10 -602 -40 -740 -40 -190 -91 -305 -249 -567 -5 -9 -26
-43 -45 -75 -19 -32 -44 -74 -55 -93 -18 -31 -46 -78 -82 -135 -23 -37 -107
-180 -118 -200 -6 -11 -24 -40 -40 -65 -16 -25 -38 -61 -50 -80 -26 -45 -83
-141 -113 -188 -12 -21 -25 -44 -29 -52 -4 -8 -24 -41 -45 -73 -21 -32 -38
-60 -38 -62 0 -2 -36 -63 -80 -135 -44 -72 -80 -134 -80 -137 0 -4 -10 -20
-23 -37 -13 -17 -27 -38 -30 -46 -4 -8 -15 -28 -26 -45 -10 -16 -27 -46 -38
-65 -11 -19 -50 -83 -85 -141 -36 -59 -68 -113 -71 -120 -4 -8 -59 -99 -122
-203 -63 -104 -115 -192 -115 -197 0 -5 -4 -9 -9 -9 -5 0 -12 -9 -16 -20 -3
-11 -36 -57 -72 -102 -199 -250 -456 -417 -761 -494 -117 -30 -189 -38 -317
-39 -119 0 -172 21 -245 95 -87 90 -84 54 -86 875 -1 396 -4 745 -7 775 -7 73
-18 169 -22 199 -3 13 -7 45 -11 70 -7 54 -60 292 -74 336 -81 253 -117 345
-210 533 -95 190 -264 457 -355 558 -5 7 -30 36 -55 65 -108 130 -351 359
-501 472 -93 70 -221 154 -344 225 -85 48 -286 143 -410 192 -72 28 -139 55
-150 60 -11 4 -137 54 -279 110 -143 56 -289 118 -325 137 -294 155 -531 402
-672 697 -66 141 -121 315 -134 426 -3 26 -8 57 -11 71 -7 32 -7 295 0 334 2
17 7 48 10 70 3 22 8 60 11 85 15 110 77 291 144 415 87 159 170 305 187 328
11 14 26 35 34 47 25 38 92 111 165 182 191 186 428 316 697 382 145 35 155
37 323 41 132 3 179 0 310 -20 17 -2 120 -22 230 -44 110 -22 211 -42 225 -44
99 -19 395 -76 600 -117 135 -26 287 -54 339 -60 102 -13 307 -16 410 -5 235
23 495 99 695 202 69 36 280 170 308 195 7 7 42 38 78 68 59 51 148 140 200
200 12 14 30 35 41 48 88 102 220 329 281 481 48 121 30 64 251 826 52 178 70
251 82 335 3 19 9 64 14 100 17 113 6 420 -19 545 -42 215 -90 358 -179 531
-59 116 -83 158 -93 162 -5 2 -8 10 -8 18 0 8 -4 14 -10 14 -5 0 -10 6 -10 13
0 7 -8 22 -17 33 -10 10 -38 46 -63 79 -43 57 -237 258 -290 300 -188 148
-231 172 -965 531 -191 93 -276 117 -415 117 -156 0 -292 -39 -417 -119 -65
-42 -83 -57 -207 -178 -204 -200 -392 -316 -636 -395 -184 -59 -289 -72 -590
-76 -208 -3 -247 -6 -380 -30 -217 -40 -443 -128 -617 -242 -29 -19 -57 -32
-62 -29 -5 4 -67 92 -136 196 -70 104 -133 194 -140 200 -13 11 -21 -1 -77
-100 -11 -19 -57 -96 -102 -170 -79 -132 -81 -136 -81 -200 0 -52 5 -72 23
-97 33 -47 75 -73 132 -82 65 -10 118 13 197 89 86 83 182 155 192 144 4 -5
79 -115 167 -244 87 -129 225 -334 307 -455 81 -121 200 -297 264 -392 l115
-172 40 21 c47 25 63 26 348 32 201 5 252 8 340 21 52 8 201 34 230 40 14 4
36 8 50 11 169 34 467 140 650 230 114 55 274 145 278 156 2 4 9 8 15 8 7 1
59 34 116 74 l104 73 127 -64 c170 -85 230 -143 270 -262 34 -101 29 -153 -35
-376 -31 -110 -60 -211 -66 -225 -5 -14 -11 -34 -13 -45 -2 -11 -27 -99 -56
-195 -66 -224 -100 -285 -198 -350 -79 -53 -206 -78 -292 -59 -19 4 -51 11
-70 14 -19 3 -69 13 -110 21 -41 9 -86 18 -100 20 -14 2 -45 9 -70 14 -25 5
-187 37 -360 70 -173 34 -349 68 -390 76 -41 9 -86 17 -100 19 -14 3 -61 11
-105 19 -160 29 -300 40 -505 40 -153 0 -310 -8 -370 -18 -14 -3 -46 -7 -72
-10 -26 -3 -94 -15 -150 -26 -441 -89 -838 -259 -1198 -514 -47 -33 -87 -63
-90 -66 -3 -3 -30 -25 -60 -49 -214 -167 -477 -458 -642 -711 -32 -50 -128
-218 -128 -225 0 -2 -21 -38 -46 -81 -177 -299 -337 -760 -369 -1059 -4 -33
-8 -71 -10 -85 -20 -132 -28 -557 -13 -705 39 -392 147 -756 329 -1114 71
-138 238 -405 286 -456 11 -11 24 -28 29 -37 27 -48 311 -345 418 -437 150
-130 396 -295 589 -395 102 -53 339 -156 359 -156 8 0 18 -4 23 -8 6 -5 35
-18 65 -30 289 -110 585 -233 647 -269 42 -24 80 -43 85 -43 4 0 8 -4 8 -10 0
-5 4 -10 10 -10 19 0 175 -126 253 -205 159 -160 266 -323 357 -550 10 -23 43
-125 46 -140 1 -5 9 -44 17 -85 9 -41 19 -93 23 -115 3 -22 8 -366 9 -765 2
-643 6 -830 21 -904 2 -11 6 -38 9 -59 4 -22 17 -80 31 -131 13 -50 26 -100
29 -112 15 -63 138 -336 169 -374 6 -8 18 -27 25 -42 26 -51 160 -222 233
-296 218 -223 463 -377 750 -474 66 -22 132 -42 147 -44 14 -3 60 -12 101 -20
148 -29 410 -38 585 -20 39 4 90 10 115 12 43 4 62 7 128 19 43 8 69 13 150
30 287 62 609 191 873 351 344 207 655 499 891 834 39 56 212 336 267 432 10
18 65 110 121 203 57 94 109 181 117 195 8 14 22 37 31 52 17 27 77 128 98
163 6 11 24 42 40 68 55 91 769 1279 790 1316 129 220 202 378 277 601 46 137
97 344 112 460 3 19 7 44 9 55 3 11 8 47 11 80 4 33 9 71 12 85 2 14 7 192 9
395 5 408 8 435 67 521 18 27 100 117 182 200 172 173 181 183 256 284 152
204 267 449 323 690 42 178 50 254 50 450 0 182 -5 235 -38 395 -89 435 -322
819 -669 1101 -64 52 -241 172 -562 383 -22 14 -44 30 -50 34 -5 4 -46 31 -90
60 -106 69 -137 124 -114 197 20 62 76 104 135 102 18 -1 137 -31 266 -67 294
-83 481 -136 778 -220 476 -135 548 -149 770 -149 167 0 266 13 420 54 86 24
235 80 300 114 l45 24 510 -1016 c554 -1104 583 -1158 774 -1397 86 -108 114
-137 623 -648 l478 -479 -36 -157 c-147 -651 -357 -1244 -659 -1866 -182 -373
-452 -828 -686 -1155 -58 -81 -234 -318 -258 -346 -14 -17 -42 -51 -61 -75
-311 -390 -731 -821 -1109 -1139 -30 -25 -59 -50 -65 -55 -18 -17 -259 -208
-290 -230 -16 -11 -33 -25 -40 -31 -6 -5 -81 -60 -167 -122 -266 -190 -618
-410 -899 -561 -167 -90 -573 -287 -630 -306 -12 -4 -67 -27 -95 -40 -39 -18
-257 -106 -270 -110 -5 -1 -23 -7 -40 -14 -76 -30 -173 -64 -325 -115 -217
-72 -318 -102 -610 -177 -141 -36 -556 -123 -641 -134 -19 -2 -91 -13 -160
-24 -68 -11 -146 -22 -174 -25 -27 -4 -66 -8 -85 -11 -19 -2 -61 -7 -92 -10
-32 -3 -82 -7 -110 -10 -130 -13 -212 -18 -443 -30 -80 -5 -617 -5 -680 0 -27
1 -112 6 -189 10 -76 4 -147 8 -157 10 -11 2 -54 7 -97 10 -42 3 -93 8 -112
10 -19 3 -57 7 -85 10 -48 5 -103 12 -155 20 -14 2 -61 9 -105 15 -66 9 -153
24 -330 55 -11 2 -67 13 -125 25 -58 12 -116 24 -128 26 -13 3 -87 21 -165 40
-78 20 -169 42 -202 50 -217 53 -832 260 -992 334 -24 11 -45 20 -48 20 -3 0
-80 33 -173 74 -606 268 -1153 587 -1672 978 -107 81 -207 157 -222 170 -14
13 -35 30 -45 38 -52 42 -131 107 -153 127 -14 12 -36 31 -50 43 -239 206
-548 510 -750 740 -41 46 -84 94 -95 106 -97 104 -395 484 -510 650 -141 204
-182 266 -271 409 -55 88 -133 219 -173 290 -41 72 -86 152 -102 178 -16 27
-29 53 -29 58 0 5 -10 26 -23 47 -51 84 -195 388 -286 607 -35 83 -69 164 -76
180 -101 231 -319 923 -370 1172 -2 10 -15 70 -29 133 -29 127 -34 149 -42
200 -3 19 -7 41 -9 48 -4 10 -37 208 -50 292 -7 48 -17 115 -21 132 -1 9 -5
43 -9 75 -3 32 -8 69 -10 83 -2 14 -6 57 -10 95 -3 39 -8 84 -10 100 -7 50
-25 307 -30 444 -6 124 -6 579 0 696 9 197 20 347 41 555 6 65 21 182 39 303
2 17 7 50 10 72 3 22 7 51 10 65 3 14 8 41 11 60 4 29 19 115 41 230 9 53 54
257 68 310 8 30 16 66 19 80 23 113 109 409 191 655 204 612 468 1181 803
1730 110 181 311 483 376 566 12 15 30 39 41 54 59 83 243 316 347 440 49 59
132 152 238 269 68 75 382 389 471 471 221 204 428 376 688 571 l135 102 26
-37 c14 -20 124 -182 245 -361 120 -179 242 -359 270 -400 28 -41 125 -185
215 -320 90 -135 167 -247 170 -250 4 -3 9 -13 13 -23 8 -20 25 -14 35 12 4 9
67 117 141 241 318 535 355 597 372 626 32 58 44 78 52 88 4 6 90 151 191 321
101 171 247 418 326 550 79 132 176 303 216 380 67 130 154 329 154 354 0 6
10 16 22 22 57 31 589 167 835 214 43 8 373 63 413 69 170 24 267 36 334 41
44 4 88 9 99 11 11 2 65 6 121 10 55 3 117 8 136 10 19 2 132 6 250 10 118 3
216 7 218 9 1 1 23 1 50 -1 26 -1 148 -5 272 -9z"/>
</g>
</svg>
